<?xml version="1.0" encoding="UTF-8"?>
<svg width="36px" height="31px" viewBox="0 0 36 31" version="1.1" xmlns="http://www.w3.org/2000/svg" xmlns:xlink="http://www.w3.org/1999/xlink">
    <!-- Generator: Sketch 50.2 (55047) - http://www.bohemiancoding.com/sketch -->
    <title>Group 6</title>
    <desc>Created with Sketch.</desc>
    <defs>
        <polygon id="path-1" points="6.88888889e-06 0 35.2711111 0 35.2711111 31 6.88888889e-06 31"></polygon>
    </defs>
    <g id="Desktop" stroke="none" stroke-width="1" fill="none" fill-rule="evenodd">
        <g id="AbalobiFisher_admin_dashboard" transform="translate(-575.000000, -146.000000)">
            <g id="Group-6" transform="translate(575.000000, 146.000000)">
                <g id="Group-3">
                    <mask id="mask-2" fill="white">
                        <use xlink:href="#path-1"></use>
                    </mask>
                    <g id="Clip-2"></g>
                    <path d="M33.2012824,14.4666667 L28.1067424,14.4666667 C25.2605291,14.4666667 22.8972958,16.7393111 22.8713247,19.5854556 C22.8451469,22.4562622 25.1729024,24.8 28.0377847,24.8 L33.2012824,24.8 C33.2030047,24.8 33.2044513,24.8014467 33.2044513,24.8031689 L33.2044513,28.4836956 C33.2044513,28.73204 33.003158,28.9333333 32.7548136,28.9333333 L5.16984244,28.9333333 C3.45602467,28.9333333 2.06667356,27.5439822 2.06667356,25.8301644 L2.06667356,7.71596889 C2.06667356,7.71355778 2.06922244,7.71211111 2.071358,7.71328222 C2.67875133,8.06454667 3.382658,8.26666667 4.13334022,8.26666667 L32.6523069,8.26666667 C32.957278,8.26666667 33.2044513,8.51384 33.2044513,8.81874222 L33.2044513,14.4634978 C33.2044513,14.46522 33.2030047,14.4666667 33.2012824,14.4666667 M33.2012824,22.7333333 L28.0982691,22.7333333 C26.2946202,22.7333333 24.8409958,21.2571133 24.9427447,19.4564267 C25.0347802,17.8290644 26.3878269,16.5333333 28.0377847,16.5333333 L33.2012824,16.5333333 C33.2030047,16.5333333 33.2044513,16.53478 33.2044513,16.5365022 L33.2044513,22.7301644 C33.2044513,22.7318867 33.2030047,22.7333333 33.2012824,22.7333333 M4.18032244,2.06666667 L28.5076069,2.06666667 C28.8188469,2.06666667 29.071118,2.31893778 29.071118,2.63017778 L29.071118,6.19683111 C29.071118,6.19855333 29.0696713,6.2 29.0679491,6.2 L4.13334022,6.2 C2.97394022,6.2 2.03450244,5.24037778 2.06750022,4.07374444 C2.09939578,2.94796222 3.054058,2.06666667 4.18032244,2.06666667 M31.1377847,6.19683111 L31.1377847,2.06721778 C31.1377847,0.925522222 30.2122624,0 29.0705669,0 L4.13650911,0 C1.85194689,0 6.88888889e-06,1.85194 6.88888889e-06,4.13650222 L6.88888889e-06,25.8301644 C6.88888889e-06,28.6853333 2.31460467,31 5.16984244,31 L33.2116158,31 C34.3490402,31 35.271118,30.0779222 35.271118,28.9404978 L35.271118,8.24538 C35.271118,7.11574 34.355378,6.2 33.2256691,6.2 L31.1409536,6.2 C31.1391624,6.2 31.1377847,6.19855333 31.1377847,6.19683111" id="Fill-1" fill="#FFFFFF" mask="url(#mask-2)"></path>
                </g>
                <path d="M28.0377778,18.6 C28.6084533,18.6 29.0711111,19.0626578 29.0711111,19.6333333 C29.0711111,20.2040089 28.6084533,20.6666667 28.0377778,20.6666667 C27.4671022,20.6666667 27.0044444,20.2040089 27.0044444,19.6333333 C27.0044444,19.0626578 27.4671022,18.6 28.0377778,18.6" id="Fill-4" fill="#FFFFFF"></path>
            </g>
        </g>
    </g>
</svg>