<?xml version="1.0" encoding="UTF-8"?>
<svg width="45px" height="34px" viewBox="0 0 45 34" version="1.1" xmlns="http://www.w3.org/2000/svg" xmlns:xlink="http://www.w3.org/1999/xlink">
    <!-- Generator: Sketch 50.2 (55047) - http://www.bohemiancoding.com/sketch -->
    <title>Group 3</title>
    <desc>Created with Sketch.</desc>
    <defs></defs>
    <g id="Desktop" stroke="none" stroke-width="1" fill="none" fill-rule="evenodd">
        <g id="AbalobiFisher_admin_dashboard" transform="translate(-961.000000, -142.000000)" fill="#FFFFFF">
            <g id="Group-3" transform="translate(961.000000, 142.000000)">
                <path d="M37.8058799,29.8864958 C37.7128916,30.2292406 37.5408896,30.5388708 37.3362803,30.8265427 L24.3157236,21.8086625 L42.5931943,12.2011833 L37.8058799,29.8864958 Z M34.94671,32.086225 L10.0535361,32.086225 C9.79768652,32.086225 9.5504502,32.042574 9.30910254,31.9796208 L22.5000791,22.8437146 L35.6910557,31.9796208 C35.449708,32.042574 35.2025596,32.086225 34.94671,32.086225 Z M7.19427832,29.8864958 L2.40687598,12.2011833 L20.6843467,21.8086625 L7.66379004,30.8265427 C7.45926855,30.5388708 7.2872666,30.2292406 7.19427832,29.8864958 Z M21.5626377,3.9607875 L21.5626377,20.1392094 L13.4365342,15.8679594 L21.5626377,3.9607875 Z M23.4376084,3.9607875 L31.563624,15.8680479 L23.4376084,20.1392979 L23.4376084,3.9607875 Z M44.6503623,9.62887083 C44.3609385,9.39370417 43.9591025,9.3540375 43.6286338,9.52651667 L33.2382041,14.9878552 L23.2728135,0.384589583 C22.9230088,-0.12824375 22.0771494,-0.12824375 21.7274326,0.384589583 L11.7618662,14.9878552 L1.37152441,9.52651667 C1.04008887,9.3540375 0.638077148,9.39370417 0.349795898,9.62887083 C0.0594931641,9.8640375 -0.0650478516,10.2505219 0.0330380859,10.612126 L5.38522559,30.3826833 C5.60574316,31.1998344 6.03711035,31.9478344 6.63221777,32.5474385 C7.54584082,33.4678292 8.76084082,33.9751729 10.0535361,33.9751729 L34.94671,33.9751729 C36.2394053,33.9751729 37.4543174,33.4678292 38.3680283,32.5474385 C38.9630479,31.9478344 39.3942393,31.1998344 39.6150205,30.3826833 L44.9671201,10.612126 C45.0651182,10.2505219 44.9405771,9.8640375 44.6503623,9.62887083 Z" id="Fill-1"></path>
            </g>
        </g>
    </g>
</svg>