<?xml version="1.0" encoding="UTF-8"?>
<svg width="41px" height="41px" viewBox="0 0 41 41" version="1.1" xmlns="http://www.w3.org/2000/svg" xmlns:xlink="http://www.w3.org/1999/xlink">
    <!-- Generator: Sketch 50.2 (55047) - http://www.bohemiancoding.com/sketch -->
    <title>Group 9</title>
    <desc>Created with Sketch.</desc>
    <defs></defs>
    <g id="Desktop" stroke="none" stroke-width="1" fill="none" fill-rule="evenodd">
        <g id="AbalobiFisher_admin_dashboard" transform="translate(-182.000000, -138.000000)" fill="#FFFFFF">
            <g id="Group-5" transform="translate(149.000000, 115.000000)">
                <g id="Group-4">
                    <g id="Group-9">
                        <g transform="translate(33.000000, 23.000000)">
                            <path d="M9.44870218,23.7783567 C8.94856726,23.7783567 8.54165853,23.371448 8.54165853,22.8713944 C8.54165853,22.3711782 8.94856726,21.9642694 9.44870218,21.9642694 C9.94363075,21.9642694 10.3313411,22.3627179 10.3313411,22.8713944 C10.3313411,23.3799897 9.94363075,23.7783567 9.44870218,23.7783567" id="Fill-1"></path>
                            <path d="M20.5813492,1.78968254 C18.383375,1.78968254 16.5952381,3.57781944 16.5952381,5.77579365 C16.5952381,7.97376786 18.383375,9.76190476 20.5813492,9.76190476 C22.7793234,9.76190476 24.5674603,7.97376786 24.5674603,5.77579365 C24.5674603,3.57781944 22.7793234,1.78968254 20.5813492,1.78968254 M20.5813492,11.5515873 C17.3966091,11.5515873 14.8055556,8.96053373 14.8055556,5.77579365 C14.8055556,2.59105357 17.3966091,0 20.5813492,0 C23.7660893,0 26.3571429,2.59105357 26.3571429,5.77579365 C26.3571429,8.96053373 23.7660893,11.5515873 20.5813492,11.5515873" id="Fill-3"></path>
                            <path d="M15.7003968,18.8730159 C15.2070139,18.8730159 14.8055556,18.4715575 14.8055556,17.9781746 C14.8055556,17.4847917 15.2070139,17.0833333 15.7003968,17.0833333 L25.4623016,17.0833333 C25.9556845,17.0833333 26.3571429,17.4847917 26.3571429,17.9781746 C26.3571429,18.4715575 25.9556845,18.8730159 25.4623016,18.8730159 L15.7003968,18.8730159 Z" id="Fill-5"></path>
                            <path d="M24.2420635,34.3293651 C24.7354464,34.3293651 25.1369048,34.7308234 25.1369048,35.2242063 L25.1369048,39.2103175 L28.2285,39.2103175 L28.2288254,38.885246 C28.2295575,38.1182044 28.2310218,37.0775853 28.2339504,36.0263095 C28.2348452,35.7092917 28.4059226,35.413506 28.6803135,35.2545496 C32.1119484,33.2667817 34.3293651,29.359254 34.3293651,25.2996032 C34.3293651,19.0645933 29.2568353,13.9920635 23.0218254,13.9920635 L16.9206349,13.9920635 C16.0776944,13.9920635 15.0671746,14.1172599 14.1481726,14.3356012 C14.080246,14.3517083 14.0106111,14.3599246 13.9411389,14.3599246 C13.6656091,14.3599246 13.4096845,14.2359484 13.2389325,14.0196409 C12.2900754,12.8180317 10.9632698,11.9885139 9.50297024,11.6839425 L9.11111111,11.6022679 L9.11111111,16.6452679 C9.11111111,16.8830516 9.01414286,17.1151409 8.84493651,17.2820694 C7.43548016,18.6735476 6.41446627,20.4119802 5.89236706,22.309369 L5.88748611,22.3269405 L5.88463889,22.3448373 C5.86373214,22.4769484 5.76277778,22.8913413 5.71974405,23.0681944 C5.61797619,23.4858413 5.25971429,23.7539683 4.80635516,23.7539683 L3.33531746,23.7539683 C2.48302183,23.7539683 1.78968254,24.4473075 1.78968254,25.2996032 L1.78968254,27.8214286 C1.78968254,28.6737242 2.48302183,29.3670635 3.33531746,29.3670635 C4.2334127,29.3670635 5.36937302,29.3708056 5.61521032,29.3812183 C5.95362302,29.3957798 6.26030952,29.6057421 6.3963254,29.9160893 C7.19859127,31.7460397 8.46658135,33.3754643 9.96674206,34.5041845 C10.188744,34.6711944 10.3221567,34.9367996 10.323621,35.2146071 C10.3272817,35.9110377 10.3297222,37.1460813 10.3308611,38.8851647 L10.3311052,39.2103175 L13.422619,39.2103175 L13.422619,35.2242063 C13.422619,34.7308234 13.8240774,34.3293651 14.3174603,34.3293651 C14.8108433,34.3293651 15.2123016,34.7308234 15.2123016,35.2242063 L15.2123016,36.6633552 L15.5036131,36.6940238 C15.9740556,36.7436468 16.4640218,36.7698413 16.9206349,36.7698413 L23.3472222,36.7698413 L23.3472222,35.2242063 C23.3472222,34.7308234 23.7486806,34.3293651 24.2420635,34.3293651 Z M24.2420635,41 C23.7486806,41 23.3472222,40.5985417 23.3472222,40.1051587 L23.3472222,38.5595238 L16.9206349,38.5595238 C16.4904603,38.5595238 16.0222956,38.5380476 15.5665774,38.4974544 L15.2123016,38.4659722 L15.2123016,40.1051587 C15.2123016,40.5985417 14.8108433,41 14.3174603,41 L9.43650794,41 C8.943125,41 8.54166667,40.5985417 8.54166667,40.1051587 C8.54166667,40.0786389 8.54158532,37.4335694 8.53629762,35.8090258 L8.53580952,35.6575536 L8.41964286,35.5604226 C7.0781131,34.4390238 5.92677778,32.9762024 5.09010119,31.3302639 L5.00021032,31.1534107 L4.8017996,31.1522718 C4.33778373,31.1496687 3.75402183,31.1486111 3.33531746,31.1486111 C1.49625595,31.1486111 0,29.6560972 0,27.8214286 L0,25.2996032 C0,23.4605417 1.49625595,21.9642857 3.33531746,21.9642857 L4.12936706,21.9642857 L4.19664286,21.7279663 C4.76210119,19.7397917 5.81215675,17.8877143 7.23340873,16.3719345 L7.32142857,16.2780575 L7.32142857,10.656746 C7.32142857,10.1633631 7.7228869,9.76190476 8.21626984,9.76190476 C10.4779405,9.76190476 12.5877321,10.6798492 14.1570397,12.3465317 L14.278494,12.4755516 L14.4528254,12.4435 C15.2972302,12.2880417 16.1736865,12.202381 16.9206349,12.202381 L23.0218254,12.202381 C26.3067063,12.202381 29.4504464,13.4288829 31.8741647,15.6559802 C34.2831587,17.8694921 35.7711984,20.8713591 36.0642996,24.1086508 L36.0910635,24.4047619 L36.4444444,24.4047619 C37.9695794,24.4047619 39.2103175,23.1640238 39.2103175,21.6388889 C39.2103175,20.9002381 38.9225853,20.2056786 38.4002421,19.6831726 C38.0513353,19.3342659 38.0513353,18.7665298 38.4001607,18.417623 C38.5692044,18.2485794 38.7939722,18.1555159 39.0328948,18.1555159 C39.2719802,18.1555159 39.4966667,18.2485794 39.665629,18.4177044 C40.5261409,19.2781349 41,20.4221488 41,21.6389702 C41,24.1509524 38.9564266,26.1945258 36.4444444,26.1945258 L36.0905754,26.1945258 L36.0639742,26.490881 C35.8905377,28.4219484 35.2869266,30.3312956 34.3183016,32.012377 C33.2863869,33.8033611 31.8514683,35.3337837 30.1687599,36.4381806 L30.0223313,36.534254 L30.0219246,36.7094802 C30.0178571,38.4998135 30.0178571,40.0873433 30.0178571,40.1051587 C30.0178571,40.5985417 29.6163988,41 29.1230159,41 L24.2420635,41 Z" id="Fill-7"></path>
                        </g>
                    </g>
                </g>
            </g>
        </g>
    </g>
</svg>