<?xml version="1.0" encoding="utf-8"?>
<!-- Generator: Adobe Illustrator 22.1.0, SVG Export Plug-In . SVG Version: 6.00 Build 0)  -->
<svg version="1.1" id="Layer_1" xmlns="http://www.w3.org/2000/svg" xmlns:xlink="http://www.w3.org/1999/xlink" x="0px" y="0px"
	 viewBox="0 0 135 194.1" style="enable-background:new 0 0 135 194.1;" xml:space="preserve">
<style type="text/css">
	.st0{fill:#FDB515;}
</style>
<g id="logo_troy_white" transform="translate(120 155.99)">
	<g id="Group_32" transform="translate(12.629 166.469)">
		<path id="Path_262" class="st0" d="M-95.6-155.7v1.9h-11.2v25.1h-2v-25.1H-120v-1.9H-95.6z"/>
		<path id="Path_263" class="st0" d="M-73.8-128.7l-11.8-13.6h3.5c1.8,0.1,3.6-0.2,5.2-0.8c1-0.5,1.9-1.1,2.6-2
			c1.4-1.6,1.5-4,0.2-5.7c-0.7-0.9-1.6-1.7-2.6-2.1c-1.2-0.6-2.6-0.8-3.9-0.8h-7.9v25.1h-2v-27h9.9c1.3,0,2.5,0.2,3.7,0.6
			c1.1,0.4,2.1,1,3,1.7c0.8,0.7,1.5,1.5,1.9,2.5c0.4,0.9,0.7,1.8,0.7,2.8c0,1.5-0.5,2.9-1.4,4.1c-0.9,1.1-2.1,2-3.4,2.6
			c-0.8,0.4-1.7,0.6-2.6,0.7c-0.9,0.1-1.8,0.2-2.7,0.2l10.3,11.9h-2.6L-73.8-128.7z"/>
		<path id="Path_264" class="st0" d="M-52.8-128.4c-5,0-9.8-2.6-12.4-6.8c-2.6-4.3-2.6-9.6,0-13.9c1.3-2.1,3.1-3.8,5.2-5
			c4.5-2.5,9.9-2.5,14.4,0c2.1,1.2,4,2.9,5.2,5c2.6,4.3,2.6,9.6,0,13.9c-1.3,2.1-3.1,3.8-5.2,5C-47.8-129.1-50.3-128.4-52.8-128.4z
			 M-52.8-154.1c-4.3,0-8.4,2.2-10.7,5.9c-2.2,3.6-2.2,8.2,0,11.9c3.6,5.7,11,7.6,16.9,4.3c1.8-1,3.4-2.5,4.5-4.3
			c2.2-3.7,2.2-8.2,0-11.9c-1.1-1.8-2.6-3.3-4.5-4.3C-48.5-153.6-50.6-154.1-52.8-154.1L-52.8-154.1z"/>
		<path id="Path_265" class="st0" d="M-24.2-140.1l11.2-15.6h2.3l-12.5,17.6v9.3h-2v-9.3l-12.5-17.6h2.3L-24.2-140.1z"/>
	</g>
	<g id="Group_33">
		<path id="Path_266" class="st0" d="M-28.9-156l-10.7,21.8l-0.2,0.5H15V-156H-28.9z"/>
		<path id="Path_267" class="st0" d="M-41.4-130.7L-41.4-130.7l-22.2,45.2v3l0,0v14l0,0v1.6v20.7l0,0v1.2l22.2,41.2l0,0V-130.7z"/>
		<path id="Path_268" class="st0" d="M-63.6-119l18.2-36.9h-16l0,0h-47.9l-10.6,21.6l-0.1,0.6h56.4V-119z"/>
	</g>
</g>
</svg>
