<?xml version="1.0" encoding="UTF-8"?>
<svg width="293px" height="25px" viewBox="0 0 293 25" version="1.1" xmlns="http://www.w3.org/2000/svg" xmlns:xlink="http://www.w3.org/1999/xlink">
    <!-- Generator: Sketch 50.2 (55047) - http://www.bohemiancoding.com/sketch -->
    <title>title/app_fisher</title>
    <desc>Created with Sketch.</desc>
    <defs></defs>
    <g id="Desktop" stroke="none" stroke-width="1" fill="none" fill-rule="evenodd">
        <g id="AbalobiFisher_admin_dashboard" transform="translate(-150.000000, -29.000000)" fill="#064C83">
            <g id="title/app_fisher" transform="translate(150.000000, 19.000000)">
                <g id="Group-2" transform="translate(0.000000, 10.894737)">
                    <path d="M18.3243386,21.9331997 C18.3659614,22.0998987 18.3867725,22.2249211 18.3867725,22.3082707 C18.3867725,22.5791567 18.2931226,22.7979459 18.1058201,22.9646449 C17.9185176,23.131344 17.7000012,23.2146923 17.4502646,23.2146923 C17.2421506,23.2146923 17.0600537,23.1573903 16.9039683,23.0427847 C16.7478828,22.9281791 16.6282191,22.7771104 16.5449735,22.5895739 L14.2037037,16.869741 L4.05820106,16.869741 L1.74814815,22.5895739 C1.58165702,23.0063216 1.30070744,23.2146923 0.905291005,23.2146923 C0.613931524,23.2146923 0.39541519,23.1417625 0.24973545,22.9959009 C0.104055709,22.8500392 0.0208113915,22.652087 0,22.4020384 L0,22.3082707 C0,22.1832464 0.0104055397,22.0894796 0.0312169312,22.0269674 L8.27248677,1.83564467 C8.4389779,1.41889702 8.7511441,1.21052632 9.20899471,1.21052632 C9.41710862,1.21052632 9.59920557,1.26782826 9.75529101,1.38243386 C9.91137644,1.49703947 10.0310401,1.64810822 10.1142857,1.83564467 L18.3243386,21.9331997 Z M4.77619048,15.0256419 L13.4544974,15.0256419 L9.08412698,4.33611807 L4.77619048,15.0256419 Z M37.0232804,11.556235 C38.2719639,11.8687958 39.2917068,12.4939079 40.0825397,13.4315901 C40.8733726,14.3692723 41.2687831,15.5882409 41.2687831,17.0885324 C41.2687831,19.1305959 40.6392479,20.6569113 39.3801587,21.6675244 C38.1210695,22.6781374 36.5550358,23.1834364 34.6820106,23.1834364 L26.2846561,23.1834364 C26.014108,23.1834364 25.7903889,23.0948788 25.6134921,22.9177611 C25.4365952,22.7406433 25.3481481,22.5166448 25.3481481,22.2457588 L25.3481481,2.2419716 C25.3481481,1.97108562 25.4365952,1.74708712 25.6134921,1.56996937 C25.7903889,1.39285162 26.014108,1.30429407 26.2846561,1.30429407 L34.5571429,1.30429407 C36.3052997,1.30429407 37.6736282,1.78354668 38.6621693,2.74206628 C39.6507104,3.70058587 40.1449735,5.01332129 40.1449735,6.68031189 C40.1449735,7.78469317 39.8744295,8.77445399 39.3333333,9.64962406 C38.7922372,10.5247941 38.0222272,11.1603248 37.0232804,11.556235 Z M38.1470899,6.83659148 C38.1470899,5.69053544 37.8089099,4.78933216 37.1325397,4.13295461 C36.4561695,3.47657706 35.5144681,3.14839321 34.3074074,3.14839321 L27.3460317,3.14839321 L27.3460317,10.9623726 L34.3074074,10.9623726 C35.4312226,10.9415352 36.3521128,10.5768865 37.0701058,9.86841548 C37.7880988,9.15994448 38.1470899,8.14934658 38.1470899,6.83659148 Z M34.5883598,21.3393372 C35.982723,21.3393372 37.1117241,20.985107 37.9753968,20.276636 C38.8390696,19.568165 39.2708995,18.5054745 39.2708995,17.0885324 C39.2708995,15.6299157 38.828664,14.5568066 37.9441799,13.8691729 C37.0596958,13.1815393 35.9202892,12.8377277 34.5259259,12.8377277 L27.3460317,12.8377277 L27.3460317,21.3393372 L34.5883598,21.3393372 Z M65.0873016,21.9331997 C65.1289244,22.0998987 65.1497354,22.2249211 65.1497354,22.3082707 C65.1497354,22.5791567 65.0560856,22.7979459 64.8687831,22.9646449 C64.6814805,23.131344 64.4629642,23.2146923 64.2132275,23.2146923 C64.0051136,23.2146923 63.8230167,23.1573903 63.6669312,23.0427847 C63.5108458,22.9281791 63.3911821,22.7771104 63.3079365,22.5895739 L60.9666667,16.869741 L50.821164,16.869741 L48.5111111,22.5895739 C48.34462,23.0063216 48.0636704,23.2146923 47.668254,23.2146923 C47.3768945,23.2146923 47.1583782,23.1417625 47.0126984,22.9959009 C46.8670187,22.8500392 46.7837744,22.652087 46.762963,22.4020384 L46.762963,22.3082707 C46.762963,22.1832464 46.7733685,22.0894796 46.7941799,22.0269674 L55.0354497,1.83564467 C55.2019409,1.41889702 55.5141071,1.21052632 55.9719577,1.21052632 C56.1800716,1.21052632 56.3621685,1.26782826 56.518254,1.38243386 C56.6743394,1.49703947 56.7940031,1.64810822 56.8772487,1.83564467 L65.0873016,21.9331997 Z M51.5391534,15.0256419 L60.2174603,15.0256419 L55.8470899,4.33611807 L51.5391534,15.0256419 Z M84.1920635,21.3393372 C84.4626116,21.3393372 84.6863307,21.4226855 84.8632275,21.5893846 C85.0401243,21.7560836 85.1285714,21.9748729 85.1285714,22.2457588 C85.1285714,22.5166448 85.0401243,22.7406433 84.8632275,22.9177611 C84.6863307,23.0948788 84.4626116,23.1834364 84.1920635,23.1834364 L73.047619,23.1834364 C72.777071,23.1834364 72.5533519,23.0948788 72.376455,22.9177611 C72.1995582,22.7406433 72.1111111,22.5166448 72.1111111,22.2457588 L72.1111111,2.2419716 C72.1111111,1.97108562 72.204761,1.74708712 72.3920635,1.56996937 C72.579366,1.39285162 72.8186934,1.30429407 73.1100529,1.30429407 C73.380601,1.30429407 73.6095229,1.39285162 73.7968254,1.56996937 C73.9841279,1.74708712 74.0777778,1.97108562 74.0777778,2.2419716 L74.0777778,21.3393372 L84.1920635,21.3393372 Z M130.237037,11.556235 C131.485721,11.8687958 132.505463,12.4939079 133.296296,13.4315901 C134.087129,14.3692723 134.48254,15.5882409 134.48254,17.0885324 C134.48254,19.1305959 133.853005,20.6569113 132.593915,21.6675244 C131.334826,22.6781374 129.768792,23.1834364 127.895767,23.1834364 L119.498413,23.1834364 C119.227865,23.1834364 119.004146,23.0948788 118.827249,22.9177611 C118.650352,22.7406433 118.561905,22.5166448 118.561905,22.2457588 L118.561905,2.2419716 C118.561905,1.97108562 118.650352,1.74708712 118.827249,1.56996937 C119.004146,1.39285162 119.227865,1.30429407 119.498413,1.30429407 L127.770899,1.30429407 C129.519056,1.30429407 130.887385,1.78354668 131.875926,2.74206628 C132.864467,3.70058587 133.35873,5.01332129 133.35873,6.68031189 C133.35873,7.78469317 133.088186,8.77445399 132.54709,9.64962406 C132.005994,10.5247941 131.235984,11.1603248 130.237037,11.556235 Z M131.360847,6.83659148 C131.360847,5.69053544 131.022667,4.78933216 130.346296,4.13295461 C129.669926,3.47657706 128.728225,3.14839321 127.521164,3.14839321 L120.559788,3.14839321 L120.559788,10.9623726 L127.521164,10.9623726 C128.644979,10.9415352 129.565869,10.5768865 130.283862,9.86841548 C131.001855,9.15994448 131.360847,8.14934658 131.360847,6.83659148 Z M127.802116,21.3393372 C129.19648,21.3393372 130.325481,20.985107 131.189153,20.276636 C132.052826,19.568165 132.484656,18.5054745 132.484656,17.0885324 C132.484656,15.6299157 132.042421,14.5568066 131.157937,13.8691729 C130.273452,13.1815393 129.134046,12.8377277 127.739683,12.8377277 L120.559788,12.8377277 L120.559788,21.3393372 L127.802116,21.3393372 Z M143.972487,22.2145029 C143.951675,22.4853889 143.84762,22.7145967 143.660317,22.9021331 C143.473015,23.0896696 143.244093,23.1834364 142.973545,23.1834364 C142.682185,23.1834364 142.448061,23.0948788 142.271164,22.9177611 C142.094267,22.7406433 142.00582,22.5062263 142.00582,22.2145029 L142.00582,2.27322751 C142.00582,1.98150416 142.09947,1.74708712 142.286772,1.56996937 C142.474075,1.39285162 142.713402,1.30429407 143.004762,1.30429407 C143.27531,1.30429407 143.504232,1.39806088 143.691534,1.58559733 C143.878837,1.77313377 143.972487,2.00234154 143.972487,2.27322751 L143.972487,22.2145029 Z" id="Abalobi-Fisher"></path>
                    <g id="Group" transform="translate(88.258197, 0.000000)">
                        <path d="M12.3844835,22.093044 C6.67738937,22.093044 2.03411975,17.439343 2.03411975,11.7194275 C2.03411975,5.99951201 6.67738937,1.34581095 12.3844835,1.34581095 C18.0920542,1.34581095 22.7348472,5.99951201 22.7348472,11.7194275 C22.7348472,17.439343 18.0920542,22.093044 12.3844835,22.093044 Z M23.9573874,11.7179944 C23.9573874,11.3883851 23.9402289,11.0635528 23.9130613,10.7411089 C23.9102016,10.7019379 23.9082951,10.6622893 23.9044821,10.6231183 C23.8749314,10.3121391 23.8325119,10.0059369 23.77913,9.70260077 C23.7719807,9.65960825 23.7643547,9.61661573 23.7562521,9.57410091 C23.6985806,9.26694327 23.6299468,8.96360718 23.5484441,8.66504803 C23.5417713,8.63973022 23.534622,8.61536779 23.5274726,8.59004998 C22.3411558,4.3557648 18.8112796,1.09502128 14.4349193,0.30682514 C13.7690758,0.187879178 13.0846439,0.121957319 12.3844835,0.121957319 C11.6847996,0.121957319 11.0008444,0.187401483 10.3354775,0.30682514 C5.95816397,1.09454358 2.42781105,4.35528711 1.2419709,8.59004998 C1.23482154,8.61536779 1.22719556,8.63973022 1.22052282,8.66504803 C1.13902014,8.96360718 1.07038631,9.26694327 1.01319144,9.57410091 C1.00508884,9.61661573 0.997462856,9.65960825 0.989836874,9.70260077 C0.936455002,10.0059369 0.894035479,10.3121391 0.864961423,10.6231183 C0.861148432,10.6622893 0.859241937,10.7019379 0.85590557,10.7411089 C0.82873801,11.0635528 0.812056175,11.3883851 0.812056175,11.7179944 L0.812056175,11.7199052 C0.812056175,18.1152808 6.00344324,23.3183307 12.3844835,23.3183307 C18.7660003,23.3183307 23.9569107,18.1152808 23.9573874,11.7199052 L23.9573874,11.7179944 Z" id="Fill-133" stroke="#064C83" stroke-width="0.3"></path>
                        <path d="M12.3847218,21.0105402 C7.27293088,21.0105402 3.11438772,16.8426546 3.11438772,11.7193797 C3.11438772,6.59658253 7.27293088,2.42869691 12.3847218,2.42869691 C17.4965126,2.42869691 21.6550558,6.59658253 21.6550558,11.7193797 C21.6550558,16.8426546 17.4965126,21.0105402 12.3847218,21.0105402 M12.3847218,2.17074181 C7.1313736,2.17074181 2.85701084,6.45422953 2.85701084,11.7193797 C2.85701084,16.9850076 7.1313736,21.2684953 12.3847218,21.2684953 C17.6380699,21.2684953 21.9124327,16.9850076 21.9124327,11.7193797 C21.9124327,6.45422953 17.6380699,2.17074181 12.3847218,2.17074181" id="Fill-115"></path>
                        <path d="M18.152633,10.3349729 C17.9333861,10.8317753 17.4310245,11.1752378 16.853833,11.1752378 C16.4982716,11.1752378 16.1674947,11.0519925 15.9191736,10.8341638 C14.4888254,9.69677289 12.6819444,9.01414727 10.7144411,9.01414727 C8.26602436,9.01414727 6.06497538,10.0669862 4.53167643,11.7436944 C4.53072318,11.7479936 4.52881668,11.7518152 4.52500369,11.7556367 C4.42252956,11.8583411 4.42252956,12.0245788 4.52500369,12.1268055 C4.52929331,12.1315824 4.5311998,12.1358817 4.53167643,12.1392255 C6.06497538,13.8159337 8.26602436,14.8687726 10.7144411,14.8687726 C12.6986262,14.8687726 14.5188528,14.17516 15.9544438,13.0200944 C16.1979986,12.8204181 16.5144768,12.7072044 16.853833,12.7072044 C17.4391271,12.7072044 17.9476848,13.0621315 18.1621655,13.5703986 C18.4357476,14.1746823 18.9729027,14.6327915 19.626354,14.7985515 C19.6725865,14.8100162 19.7207255,14.8229139 19.7679113,14.8315124 C19.7598087,14.7708452 19.7555191,14.7092226 19.7555191,14.6466446 C19.7555191,14.5448957 19.7640983,14.4450575 19.7845931,14.3490409 C19.7845931,14.3499963 19.7841165,14.3509516 19.7836399,14.351907 C19.822723,14.1875801 19.8441711,14.0170431 19.8441711,13.8407738 C19.8441711,13.1576705 19.5357955,12.5486098 19.0529755,12.1397032 C19.0501158,12.135404 19.047256,12.1301493 19.0439197,12.1258501 C18.9986404,12.0771252 18.9714728,12.0126364 18.9714728,11.9414599 C18.9714728,11.8698058 18.999117,11.8048393 19.0439197,11.7565921 C19.0477327,11.7522929 19.0496391,11.7479936 19.0524989,11.7436944 C19.5357955,11.3347878 19.8441711,10.7257271 19.8441711,10.0421461 C19.8441711,9.84294745 19.8165269,9.65091421 19.7674347,9.46795716 C19.7731542,9.48849803 19.7793503,9.5095166 19.7841165,9.53053516 C19.7640983,9.43642932 19.7555191,9.33850192 19.7555191,9.23818605 C19.7555191,9.17465266 19.7602853,9.11255236 19.7679113,9.05092975 C19.7212022,9.06000595 19.6725865,9.07242601 19.626354,9.08436838 C18.9648001,9.25251689 18.4228788,9.72017993 18.152633,10.3349729" id="Fill-113"></path>
                    </g>
                    <path d="M188.082778,1.24178223 C188.374138,1.24178223 188.613465,1.32513051 188.800768,1.49182957 C188.98807,1.65852863 189.08172,1.8877364 189.08172,2.17945976 L189.019286,2.58578669 L182.120344,22.5895739 C182.05791,22.7771104 181.948652,22.9229699 181.792567,23.0271568 C181.636481,23.1313437 181.46479,23.1834364 181.277487,23.1834364 C180.798825,23.1834364 180.486659,22.9854842 180.340979,22.5895739 L174.94045,9.24329713 L169.539921,22.5895739 C169.352619,22.9854842 169.040452,23.1834364 168.603413,23.1834364 C168.416111,23.1834364 168.244419,23.1313437 168.088334,23.0271568 C167.932248,22.9229699 167.833396,22.7771104 167.791773,22.5895739 L160.892831,2.58578669 C160.830397,2.46076239 160.79918,2.33573997 160.79918,2.21071568 C160.79918,1.91899232 160.908438,1.68457528 161.126958,1.50745753 C161.345478,1.33033978 161.579602,1.24178223 161.829339,1.24178223 C162.037453,1.24178223 162.224753,1.29387491 162.391244,1.39806182 C162.557735,1.50224873 162.672196,1.64810822 162.73463,1.83564467 L168.853149,19.7140295 L174.097593,6.61780006 C174.284896,6.2010524 174.576251,6.00310024 174.971667,6.02393762 C175.179781,6.00310024 175.361878,6.04998365 175.517963,6.16458925 C175.674049,6.27919486 175.793713,6.43026361 175.876958,6.61780006 L181.090186,19.7140295 L187.14627,1.83564467 C187.312761,1.4397344 187.624928,1.24178223 188.082778,1.24178223 Z M211.448651,21.9331997 C211.490274,22.0998987 211.511085,22.2249211 211.511085,22.3082707 C211.511085,22.5791567 211.417435,22.7979459 211.230133,22.9646449 C211.04283,23.131344 210.824314,23.2146923 210.574577,23.2146923 C210.366463,23.2146923 210.184366,23.1573903 210.028281,23.0427847 C209.872195,22.9281791 209.752532,22.7771104 209.669286,22.5895739 L207.328016,16.869741 L197.182514,16.869741 L194.872461,22.5895739 C194.70597,23.0063216 194.42502,23.2146923 194.029604,23.2146923 C193.738244,23.2146923 193.519728,23.1417625 193.374048,22.9959009 C193.228368,22.8500392 193.145124,22.652087 193.124313,22.4020384 L193.124313,22.3082707 C193.124313,22.1832464 193.134718,22.0894796 193.15553,22.0269674 L201.396799,1.83564467 C201.563291,1.41889702 201.875457,1.21052632 202.333307,1.21052632 C202.541421,1.21052632 202.723518,1.26782826 202.879604,1.38243386 C203.035689,1.49703947 203.155353,1.64810822 203.238598,1.83564467 L211.448651,21.9331997 Z M197.900503,15.0256419 L206.57881,15.0256419 L202.20844,4.33611807 L197.900503,15.0256419 Z M230.319286,21.3393372 C230.589834,21.3393372 230.813553,21.4226855 230.99045,21.5893846 C231.167347,21.7560836 231.255794,21.9748729 231.255794,22.2457588 C231.255794,22.5166448 231.167347,22.7406433 230.99045,22.9177611 C230.813553,23.0948788 230.589834,23.1834364 230.319286,23.1834364 L219.174842,23.1834364 C218.904294,23.1834364 218.680575,23.0948788 218.503678,22.9177611 C218.326781,22.7406433 218.238334,22.5166448 218.238334,22.2457588 L218.238334,2.2419716 C218.238334,1.97108562 218.331984,1.74708712 218.519286,1.56996937 C218.706589,1.39285162 218.945916,1.30429407 219.237276,1.30429407 C219.507824,1.30429407 219.736746,1.39285162 219.924048,1.56996937 C220.111351,1.74708712 220.205001,1.97108562 220.205001,2.2419716 L220.205001,21.3393372 L230.319286,21.3393372 Z M249.81426,21.3393372 C250.084808,21.3393372 250.308527,21.4226855 250.485424,21.5893846 C250.662321,21.7560836 250.750768,21.9748729 250.750768,22.2457588 C250.750768,22.5166448 250.662321,22.7406433 250.485424,22.9177611 C250.308527,23.0948788 250.084808,23.1834364 249.81426,23.1834364 L238.669815,23.1834364 C238.399267,23.1834364 238.175548,23.0948788 237.998651,22.9177611 C237.821755,22.7406433 237.733307,22.5166448 237.733307,22.2457588 L237.733307,2.2419716 C237.733307,1.97108562 237.826957,1.74708712 238.01426,1.56996937 C238.201562,1.39285162 238.44089,1.30429407 238.732249,1.30429407 C239.002797,1.30429407 239.231719,1.39285162 239.419022,1.56996937 C239.606324,1.74708712 239.699974,1.97108562 239.699974,2.2419716 L239.699974,21.3393372 L249.81426,21.3393372 Z M269.621403,21.3393372 C269.891951,21.3393372 270.11567,21.433104 270.292567,21.6206405 C270.469464,21.8081769 270.557911,22.0269662 270.557911,22.2770148 C270.557911,22.5479007 270.469464,22.76669 270.292567,22.933389 C270.11567,23.1000881 269.891951,23.1834364 269.621403,23.1834364 L258.164789,23.1834364 C257.894241,23.1834364 257.670522,23.0948788 257.493625,22.9177611 C257.316728,22.7406433 257.228281,22.5166448 257.228281,22.2457588 L257.228281,2.2419716 C257.228281,1.97108562 257.316728,1.74708712 257.493625,1.56996937 C257.670522,1.39285162 257.894241,1.30429407 258.164789,1.30429407 L269.621403,1.30429407 C269.891951,1.30429407 270.11567,1.39285162 270.292567,1.56996937 C270.469464,1.74708712 270.557911,1.97108562 270.557911,2.2419716 C270.557911,2.51285757 270.469464,2.7316468 270.292567,2.89834586 C270.11567,3.06504493 269.891951,3.14839321 269.621403,3.14839321 L259.194948,3.14839321 L259.194948,10.9936285 L268.216641,10.9936285 C268.487189,10.9936285 268.710908,11.0821861 268.887805,11.2593038 C269.064702,11.4364216 269.153149,11.6604201 269.153149,11.931306 C269.153149,12.202192 269.064702,12.4209813 268.887805,12.5876803 C268.710908,12.7543794 268.487189,12.8377277 268.216641,12.8377277 L259.194948,12.8377277 L259.194948,21.3393372 L269.621403,21.3393372 Z M291.769815,1.30429407 C292.040364,1.30429407 292.264083,1.38764235 292.440979,1.55434141 C292.617876,1.72104047 292.706323,1.9398297 292.706323,2.21071568 C292.706323,2.48160165 292.617876,2.69518162 292.440979,2.85146199 C292.264083,3.00774236 292.040364,3.08588137 291.769815,3.08588137 L285.307911,3.08588137 L285.307911,22.2457588 C285.307911,22.5166448 285.214261,22.7406433 285.026958,22.9177611 C284.839656,23.0948788 284.610734,23.1834364 284.340186,23.1834364 C284.048826,23.1834364 283.814702,23.0948788 283.637805,22.9177611 C283.460908,22.7406433 283.372461,22.5166448 283.372461,22.2457588 L283.372461,3.08588137 L276.910556,3.08588137 C276.640008,3.08588137 276.416289,3.00253309 276.239392,2.83583403 C276.062495,2.66913497 275.974048,2.45034573 275.974048,2.17945976 C275.974048,1.92941117 276.062495,1.72104047 276.239392,1.55434141 C276.416289,1.38764235 276.640008,1.30429407 276.910556,1.30429407 L291.769815,1.30429407 Z" id="Wallet"></path>
                </g>
            </g>
        </g>
    </g>
</svg>